<?xml version="1.0" ?><svg id="Layer_1" style="enable-background:new 0 0 512 512;" version="1.1" viewBox="0 0 512 512" xml:space="preserve" xmlns="http://www.w3.org/2000/svg" xmlns:xlink="http://www.w3.org/1999/xlink"><style type="text/css">
	.st0{fill-rule:evenodd;clip-rule:evenodd;fill:#DFDFE0;}
	.st1{fill-rule:evenodd;clip-rule:evenodd;fill:#FCB131;}
	.st2{fill-rule:evenodd;clip-rule:evenodd;fill:#ED1B2E;}
	.st3{fill-rule:evenodd;clip-rule:evenodd;fill:#FFFFFF;}
	.st4{fill-rule:evenodd;clip-rule:evenodd;fill:#003473;}
</style><g><path class="st0" d="M489.2,94.5H21.9c-9.1,0-14.8,1.4-17.9,4.3c-2.7,3.3-4,8.7-4,16.7v29.9v24.1v172.3V367v28.8   c0,14.3,7.4,21.7,21.9,21.7h467.3c15.2,0,22.8-7.4,22.8-21.7V367v-25.2V169.4v-24.1v-29.9C512,101.3,504.4,94.5,489.2,94.5z"/><g><path class="st1" d="M256,341c20.2,18.5,47.1,29.7,76.5,29.7c63,0,114-51.4,114-114.7c0-63.4-51.1-114.7-114-114.7    c-29.5,0-56.3,11.2-76.5,29.7c-23,21-37.5,51.3-37.5,85C218.5,289.7,233,320.1,256,341L256,341z"/><path class="st1" d="M431.4,320c0-2.1,1.7-3.7,3.7-3.7c2,0,3.7,1.7,3.7,3.7c0,2-1.6,3.7-3.7,3.7C433,323.7,431.4,322,431.4,320    L431.4,320z M435.1,322.8c1.6,0,2.8-1.3,2.8-2.8c0-1.6-1.3-2.8-2.8-2.8c-1.5,0-2.8,1.3-2.8,2.8    C432.3,321.5,433.5,322.8,435.1,322.8L435.1,322.8z M434.6,321.6h-0.8v-3.3h1.4c0.3,0,0.6,0,0.8,0.2c0.3,0.2,0.4,0.5,0.4,0.8    c0,0.4-0.2,0.7-0.6,0.8l0.6,1.4h-0.8l-0.5-1.3h-0.6V321.6v-1.8h0.4c0.2,0,0.3,0,0.5-0.1c0.1-0.1,0.2-0.2,0.2-0.4    c0-0.1-0.1-0.3-0.2-0.3c-0.1-0.1-0.3-0.1-0.5-0.1h-0.4v0.8V321.6L434.6,321.6z"/><path class="st2" d="M292.9,243.8c-0.4-4.1-1.1-8.2-1.9-12.1h-69.8c0.9-4.1,2-8.2,3.3-12.1h63.2c-1.4-4.2-3-8.2-4.8-12.2h-53.5    c2-4.2,4.2-8.2,6.6-12.1h40.4c-2.6-4.2-5.5-8.3-8.7-12.1h-23c3.5-4.3,7.4-8.4,11.5-12.1c-20.2-18.5-47.1-29.7-76.5-29.7    c-63,0-114,51.4-114,114.7c0,63.4,51.1,114.7,114,114.7c29.5,0,56.3-11.2,76.5-29.7l0,0l0,0c4.1-3.8,8-7.8,11.5-12.1h-23    c-3.1-3.8-6-7.9-8.7-12.1h40.4c2.4-3.9,4.6-8,6.6-12.1h-53.5c-1.8-3.9-3.5-8-4.9-12.1h63.2c1.3-4,2.4-8,3.3-12.1    c0.9-4,1.5-8,1.9-12.2c0.4-4,0.6-8,0.6-12.1C293.5,251.9,293.3,247.8,292.9,243.8L292.9,243.8z"/><path class="st3" d="M431.4,282.6c0-2,1.7-3.7,3.7-3.7c2,0,3.7,1.7,3.7,3.7c0,2-1.6,3.7-3.7,3.7    C433,286.3,431.4,284.7,431.4,282.6L431.4,282.6z M435.1,285.4c1.6,0,2.8-1.3,2.8-2.8c0-1.6-1.3-2.8-2.8-2.8    c-1.5,0-2.8,1.3-2.8,2.8C432.3,284.2,433.5,285.4,435.1,285.4L435.1,285.4z M434.6,284.2h-0.8V281h1.4c0.3,0,0.6,0,0.8,0.2    c0.3,0.2,0.4,0.5,0.4,0.8c0,0.4-0.2,0.7-0.6,0.8l0.6,1.4h-0.8l-0.5-1.3h-0.6V284.2v-1.8h0.4c0.2,0,0.3,0,0.5-0.1    c0.1-0.1,0.2-0.2,0.2-0.4c0-0.1-0.1-0.3-0.2-0.3c-0.1-0.1-0.3-0.1-0.5-0.1h-0.4v0.8V284.2L434.6,284.2z"/><path class="st4" d="M217.2,289.1c-3.8,1.1-6.5,1.5-9.3,1.5c-5.8,0-9.4-3.7-9.4-10.4c0-1.3,0.1-2.7,0.4-4.2l0.7-4.6l0.6-3.7    l5.4-32.3h11.9l-1.4,7h7.4l-1.8,11.9h-7.5l-3.2,19.3c-0.1,0.9-0.2,1.5-0.2,2c0,2.4,1.3,3.5,4.2,3.5c1.4,0,2.5-0.1,3.8-0.4    L217.2,289.1L217.2,289.1z"/><path class="st4" d="M255.5,288.7c-4.2,1.3-8.3,1.9-12.7,1.9c-13.2,0-21-7.3-21-21.2c0-16.2,9.2-28.2,21.6-28.2    c10.2,0,16.7,6.7,16.7,17.2c0,3.5-0.4,6.9-1.5,11.7h-24.6c-0.1,0.7-0.1,1.1-0.1,1.5c0,5.5,3.7,8.3,10.9,8.3c4.4,0,8.4-0.9,12.9-3    L255.5,288.7L255.5,288.7z M248.1,260.5c0.1-1,0.1-1.8,0.1-2.4c0-3.8-2.2-6.1-5.9-6.1c-3.9,0-6.8,3-7.9,8.5L248.1,260.5    L248.1,260.5z"/><polygon class="st4" points="122.8,289.7 110.4,289.7 117.5,245 101.6,289.7 93.2,289.7 92.2,245.2 84.7,289.7 72.7,289.7     82.4,231.5 100.2,231.5 100.7,267.6 112.7,231.5 132.3,231.5 122.8,289.7   "/><path class="st4" d="M152.5,268.6c-1.3-0.2-1.5-0.2-2.4-0.2c-7,0-10.6,2.7-10.6,7.2c0,2.9,1.7,4.8,4.4,4.8    C149.9,280.5,152.3,275.6,152.5,268.6L152.5,268.6z M162.3,289.7h-10.7l0.2-4.9c-2.7,3.7-6.4,5.7-13,5.7c-6,0-11-5.3-11-12.9    c0-2.3,0.4-4.3,0.9-6.2c2-7.3,9.3-11.9,20.5-12.1c1.4,0,3.6,0,5.4,0.2c0.4-1.6,0.5-2.2,0.5-3.1c0-3.1-2.6-4.1-8.3-4.1    c-3.5,0-7.5,0.6-10.2,1.4l-1.7,0.5l-0.7,0.2l1.7-10.6c5.8-1.8,9.8-2.5,14.4-2.5c10.6,0,16.3,4.8,16.3,13.9c0,2.3,0.2,4.1-0.6,9.4    l-2.6,16.8l-0.4,3l-0.3,2.4l-0.2,1.6L162.3,289.7L162.3,289.7z"/><path class="st4" d="M315,242.8c3.4,0,6.6,0.9,11.1,3.1l2-12.6c-1.1-0.5-1.4-0.6-3-1.1l-5.1-1.3c-1.6-0.4-3.4-0.6-5.5-0.6    c-6.1,0-9.7,0.1-13.5,2.4c-2,1.2-4.5,3-7.4,6.2l-1.5-0.5l-12.6,9l0.6-5.1H267l-7.5,47.3h12.4l4.5-25.5c0,0,1.8-3.5,2.6-4.6    c2.3-3.1,4.3-3.1,6.9-3c0.3,0,0.7,0,0.9,0c-0.4,2.8-0.6,5.8-0.6,9c0,15.5,8.7,25.1,22.1,25.1c3.4,0,6.4-0.5,10.9-1.7l2.2-13.3    c-4.1,2-7.5,3-10.5,3c-7.2,0-11.5-5.3-11.5-14.2C299.3,251.8,305.8,242.8,315,242.8L315,242.8z"/><path class="st4" d="M419.6,231.5l-2.7,16.6c-3-4.5-6.5-6.6-11.3-6.6c-6.5,0-12.5,3.7-16.2,10.7l0-0.1l-7.9-4.7l0.6-5.1H369    l-7.5,47.3h12.4l4.1-25.5c0,0,3.2-3.5,4-4.6c1.8-2.4,3.8-2.9,5.5-3c-1.4,4-2.3,8.7-2.3,14.1c0,11.8,6.1,19.7,15.1,19.7    c4.5,0,8-1.6,11.4-5.3l-0.6,4.6h11.7l9.4-58.2H419.6L419.6,231.5z M404.5,278.6c-4.2,0-6.4-3.1-6.4-9.3c0-9.3,4-15.9,9.6-15.9    c4.3,0,6.6,3.3,6.6,9.3C414.3,272,410.3,278.6,404.5,278.6L404.5,278.6z"/><path class="st4" d="M347.5,268.6c-1.3-0.2-1.5-0.2-2.4-0.2c-7,0-10.6,2.7-10.6,7.2c0,2.9,1.7,4.8,4.4,4.8    C344.9,280.5,347.3,275.6,347.5,268.6L347.5,268.6z M357.3,289.7h-10.7l0.2-4.9c-2.7,3.7-6.4,5.7-13,5.7c-6,0-11.4-5.2-11.4-13    c0.1-11.2,8.4-18.2,21.8-18.2c1.4,0,3.6,0,5.5,0.2c0.4-1.6,0.5-2.2,0.5-3.1c0-3.1-2.6-4.1-8.3-4.1c-3.5,0-7.5,0.6-10.2,1.4    l-1.7,0.5l-0.7,0.2l1.7-10.6c5.8-1.8,9.8-2.5,14.4-2.5c10.6,0,16.3,4.8,16.3,13.9c0,2.3,0.2,4.1-0.6,9.4l-2.6,16.8l-0.4,3    l-0.3,2.4l-0.2,1.6L357.3,289.7L357.3,289.7z"/><path class="st4" d="M188.1,252.5c2.4,0,5.7,0.2,9.3,0.7l1.8-10.9c-3.6-0.5-8.2-1-11.1-1c-13.8,0-18.4,7.4-18.4,16.2    c0,5.6,2.7,9.9,9.2,13c5,2.4,5.9,2.8,5.9,5c0,2.9-2.6,4.6-7.4,4.6c-3.7,0-7.1-0.6-11.1-1.9l-1.4,10.9l0.3,0.1l2.3,0.5    c0.7,0.1,1.8,0.3,3.2,0.5c2.9,0.3,5.4,0.4,7,0.4c13.7,0,19.4-5.4,19.4-15.8c0-6.5-3.1-10.3-9.3-13.2c-5.2-2.4-5.8-2.7-5.8-4.9    C182,254.4,184.3,252.5,188.1,252.5L188.1,252.5z"/><path class="st3" d="M331.4,229.7l-2,12.6c-4.4-2.2-7.6-3.1-11.1-3.1c-9.2,0-15.7,9-15.7,21.8c0,8.8,4.4,14.2,11.6,14.2    c3.1,0,6.4-1,10.5-3l-2.2,13.3c-4.6,1.2-7.5,1.7-10.9,1.7c-13.3,0-21.6-9.6-21.6-25.1c0-20.8,11.5-35.3,27.9-35.3    c2.1,0,4,0.2,5.5,0.6l5.1,1.3C330,229.1,330.3,229.2,331.4,229.7L331.4,229.7z"/><path class="st3" d="M291.7,238.3c-0.4-0.1-0.8-0.1-1.3-0.1c-4.1,0-6.4,2.1-10.2,7.7l1.1-7.2h-11.2l-7.6,47.3H275    c4.4-28.9,5.6-33.9,11.5-33.9c0.4,0,0.4,0,0.9,0c1.1-5.7,2.6-9.9,4.7-13.7L291.7,238.3L291.7,238.3z"/><path class="st3" d="M220.4,285.5c-3.4,1.1-6,1.5-8.9,1.5c-6.3,0-9.8-3.7-9.8-10.4c0-1.3,0.1-2.7,0.4-4.2l0.8-4.6l0.6-3.7    l5.4-32.3h12.3l-1.4,7h6.3l-1.7,11.5h-6.3l-3.3,19.7c-0.1,0.9-0.2,1.5-0.2,2c0,2.4,1.3,3.5,4.2,3.5c1.4,0,2.5-0.1,3.3-0.4    L220.4,285.5L220.4,285.5z"/><path class="st3" d="M172.8,253.7c0,6,2.9,10.1,9.4,13.2c5,2.4,5.8,3.1,5.8,5.2c0,2.9-2.2,4.3-7.1,4.3c-3.7,0-7.1-0.6-11.1-1.9    l-1.7,10.9l0.6,0.1l2.3,0.5c0.7,0.1,1.8,0.3,3.2,0.4c2.9,0.3,5.2,0.4,6.8,0.4c13,0,19.1-5,19.1-15.8c0-6.5-2.5-10.3-8.7-13.2    c-5.2-2.4-5.8-2.9-5.8-5.1c0-2.6,2.1-3.9,6.1-3.9c2.4,0,5.7,0.3,8.9,0.7l1.8-11c-3.2-0.5-8.1-0.9-10.9-0.9    C177.6,237.7,172.8,245,172.8,253.7L172.8,253.7z"/><path class="st3" d="M425.9,286.1h-11.7l0.6-4.6c-3.4,3.7-6.9,5.3-11.4,5.3c-9,0-15-7.8-15-19.7c0-15.7,9.2-29,20.1-29    c4.8,0,8.5,2,11.9,6.5l2.7-16.6h12.2L425.9,286.1L425.9,286.1z M407.7,274.9c5.8,0,9.8-6.6,9.8-16c0-6-2.3-9.3-6.6-9.3    c-5.6,0-9.6,6.6-9.6,15.9C401.3,271.8,403.5,274.9,407.7,274.9L407.7,274.9z"/><path class="st3" d="M258.2,285c-4.2,1.3-8.3,1.9-12.7,1.9c-13.8,0-21-7.3-21-21.2c0-16.3,9.2-28.2,21.6-28.2    c10.2,0,16.7,6.7,16.7,17.2c0,3.5-0.4,6.9-1.5,11.7h-24.6c-0.1,0.7-0.1,1.1-0.1,1.5c0,5.5,3.7,8.3,10.9,8.3c4.4,0,8.4-0.9,12.8-3    L258.2,285L258.2,285z M251.3,256.9c0.1-1,0.1-1.8,0.1-2.4c0-3.8-2.2-6.1-5.9-6.1c-3.9,0-6.8,3-7.9,8.5L251.3,256.9L251.3,256.9z"/><polygon class="st3" points="125.9,286.1 113.5,286.1 120.6,241.3 104.8,286.1 96.3,286.1 95.3,241.6 87.8,286.1 76.3,286.1     85.9,227.9 103.7,227.9 104.2,263.9 116.2,227.9 135.5,227.9 125.9,286.1   "/><path class="st3" d="M156.4,265c-1.3-0.1-1.9-0.2-2.8-0.2c-7,0-10.6,2.4-10.6,7.2c0,2.9,1.7,4.8,4.4,4.8    C152.5,276.8,156.2,272,156.4,265L156.4,265z M165.4,286.1h-10.3l0.2-4.9c-3.1,3.9-7.3,5.7-13,5.7c-6.7,0-11.3-5.3-11.3-12.9    c0-11.5,8-18.2,21.7-18.2c1.4,0,3.2,0.1,5,0.4c0.4-1.6,0.5-2.2,0.5-3.1c0-3.1-2.2-4.3-7.9-4.3c-3.5,0-7.5,0.5-10.3,1.3l-1.7,0.5    l-1.1,0.3l1.7-10.6c6.2-1.8,10.2-2.5,14.8-2.5c10.6,0,16.3,4.8,16.3,13.9c0,2.3-0.2,4.1-1,9.4l-2.6,16.8l-0.4,3l-0.3,2.4l-0.2,1.6    L165.4,286.1L165.4,286.1z"/><path class="st3" d="M351.4,265c-1.3-0.1-1.9-0.2-2.8-0.2c-7,0-10.6,2.4-10.6,7.2c0,2.9,1.7,4.8,4.4,4.8    C347.6,276.8,351.2,272,351.4,265L351.4,265z M360.4,286.1h-10.3l0.2-4.9c-3.1,3.9-7.3,5.7-13,5.7c-6.7,0-11.3-5.3-11.3-12.9    c0-11.5,8-18.2,21.7-18.2c1.4,0,3.2,0.1,5,0.4c0.4-1.6,0.5-2.2,0.5-3.1c0-3.1-2.2-4.3-7.9-4.3c-3.5,0-7.5,0.5-10.3,1.3l-1.7,0.5    l-1.1,0.3l1.7-10.6c6.2-1.8,10.2-2.5,14.8-2.5c10.6,0,16.3,4.8,16.3,13.9c0,2.3-0.2,4.1-1,9.4l-2.6,16.8l-0.4,3l-0.3,2.4l-0.2,1.6    L360.4,286.1L360.4,286.1z"/><path class="st3" d="M393.6,238.3c-0.4-0.1-0.8-0.1-1.2-0.1c-4.1,0-6.4,2.1-10.2,7.7l1.1-7.2h-11.2l-7.5,47.3h12.4    c4.4-28.9,5.6-33.9,11.5-33.9c0.4,0,0.4,0,0.9,0c1.1-5.7,2.6-9.9,4.7-13.7L393.6,238.3L393.6,238.3z"/></g></g></svg>