<?xml version="1.0" ?><!DOCTYPE svg  PUBLIC '-//W3C//DTD SVG 1.1//EN'  'http://www.w3.org/Graphics/SVG/1.1/DTD/svg11.dtd'><svg enable-background="new 0 0 64 64" height="64px" id="Layer_1" version="1.1" viewBox="0 0 64 64" width="64px" xml:space="preserve" xmlns="http://www.w3.org/2000/svg" xmlns:xlink="http://www.w3.org/1999/xlink"><g><g><path clip-rule="evenodd" d="M53.1,22C53.1,22,53.1,22,53.1,22c-5.7,0-10.3,4.5-10.3,10.1    c0,5.6,4.6,10.1,10.3,10.2c0,0,0,0,0.1,0c5.7,0,10.4-4.5,10.4-10.1C63.5,26.5,58.9,22,53.1,22z M53.1,39.2c-4.1,0-7.4-3.3-7.4-7.3    c0-4,3.3-7.3,7.4-7.3c4.1,0,7.4,3.3,7.4,7.3C60.5,36,57.2,39.2,53.1,39.2z" fill="#303847" fill-rule="evenodd"/></g><g><path clip-rule="evenodd" d="M42.2,22c-2.9,2-4.8,5.8-4.8,9.8c0,4.3,2.1,8.2,5.3,10.2h-3.3    c-3.2-2-5.2-5.9-5.2-10.2c0-4,1.9-7.8,4.8-9.8H42.2z" fill="#636C84" fill-rule="evenodd"/></g><g><path clip-rule="evenodd" d="M33.8,22c-2.9,2-4.7,5.8-4.7,9.8c0,4.3,2.1,8.2,5.3,10.2H31    c-3.2-2-5.3-5.9-5.3-10.2c0-4,1.9-7.8,4.8-9.8H33.8z" fill="#7D849E" fill-rule="evenodd"/></g><g><path clip-rule="evenodd" d="M25.4,22c-2.9,2-4.8,5.8-4.8,9.8c0,4.3,2.1,8.2,5.3,10.2h-3.3    c-3.2-2-5.2-5.9-5.2-10.2c0-4,1.9-7.8,4.8-9.8H25.4z" fill="#9A9FB8" fill-rule="evenodd"/></g><g><path clip-rule="evenodd" d="M17,22c-2.9,2-4.7,5.8-4.7,9.8c0,4.3,2.1,8.2,5.3,10.2h-3.3    c-3.2-2-5.2-5.9-5.2-10.2c0-4,1.8-7.8,4.8-9.8H17z" fill="#9A9FB8" fill-rule="evenodd"/></g><g><path clip-rule="evenodd" d="M8.6,22c-2.9,2-4.7,5.8-4.7,9.8c0,4.3,2.1,8.2,5.3,10.2H5.7    c-3.2-2-5.2-5.9-5.2-10.2c0-4,1.9-7.8,4.8-9.8H8.6z" fill="#B0B5C6" fill-rule="evenodd"/></g></g></svg>